# xmcd
#
# Track frame offsets:
#	150
#	11942
#	21715
#	33395
#	44117
#	56572
#	66800
#	77660
#	90167
#	104755
#	121935
#	134280
#	144107
#	155585
#	167847
#	178585
#	189135
#	202017
#	212785
#	223977
#	233502
#	245425
#	255710
#	267217
#
# Disc length: 3676 seconds
#
# Revision: 3
# Processed by: cddbd v1.5.1PL2 Copyright (c) Steve Scherf et al.
# Submitted via: audiograbber 1.83.01
#
DISCID=5f0e5a18
DTITLE=Various Artist - Country Giants - Vol. 2
DYEAR=1900
DGENRE=Country
TTITLE0=Willie Nelson - Is There Something On Your Mind
TTITLE1=Buck Owens - Rythem N Booze
TTITLE2=Johnny Lee - Candy Store
TTITLE3=Patsy Cline - Stop Look Listen
TTITLE4=Faron Young - Four In The Morning
TTITLE5=Faron Young - Hello Walls
TTITLE6=Donna Fargo - Wishful Thinking
TTITLE7=Kenny Rogers - Reuben James
TTITLE8=Anne Murray - Both Sides Now
TTITLE9=Johnny Paycheck - Billy Jack Washburn
TTITLE10=Willie Nelson - The Shelter Of My Arms
TTITLE11=Carl Perkins - This Old House
TTITLE12=Dolly Parton - Letter To Heaven
TTITLE13=Stonewall Jackson - Ol' Blue
TTITLE14=Waylon Jennings - Sally Was A Good Old Girl
TTITLE15=Patsy Cline - Honky Tonk Merry Go Round
TTITLE16=Frankie Lane - Moonlight Gambler
TTITLE17=Faron Young - Wine Me Up
TTITLE18=Hank Locklin - Send Me The Pillow You Dream On
TTITLE19=Willie Nelson - Building Heartaches
TTITLE20=Billie Jo Spears - Ease The Want In Me
TTITLE21=Dave Dudley - Sad And Lonley Days
TTITLE22=Guy Mitchell - Heartaches By The Number
TTITLE23=Conway Twitty - Blue Is The Way I Feel
EXTD=
EXTT0=
EXTT1=
EXTT2=
EXTT3=
EXTT4=
EXTT5=
EXTT6=
EXTT7=
EXTT8=
EXTT9=
EXTT10=
EXTT11=
EXTT12=
EXTT13=
EXTT14=
EXTT15=
EXTT16=
EXTT17=
EXTT18=
EXTT19=
EXTT20=
EXTT21=
EXTT22=
EXTT23=
PLAYORDER=
